<?xml version="1.0" standalone="no"?>
<!DOCTYPE svg PUBLIC "-//W3C//DTD SVG 20010904//EN"
 "http://www.w3.org/TR/2001/REC-SVG-20010904/DTD/svg10.dtd">
<svg version="1.0" xmlns="http://www.w3.org/2000/svg"
 width="1164.000000pt" height="1280.000000pt" viewBox="0 0 1164.000000 1280.000000"
 preserveAspectRatio="xMidYMid meet">
<g transform="translate(0.000000,1280.000000) scale(0.100000,-0.100000)"
fill="#000000" stroke="none">
<path d="M8292 12788 c3 -7 47 -163 98 -345 51 -183 95 -331 97 -330 3 4 -83
624 -92 665 -5 19 -12 22 -56 22 -37 0 -50 -4 -47 -12z"/>
<path d="M8991 12039 l0 -234 64 209 c35 115 62 212 60 216 -3 4 -24 13 -49
19 -24 6 -51 13 -60 17 -14 6 -16 -16 -15 -227z"/>
<path d="M7641 11842 c-23 -36 -28 -49 -18 -58 12 -11 683 -416 702 -423 9 -3
-443 364 -596 484 l-57 45 -31 -48z"/>
<path d="M8508 11518 l-3 -261 -205 -144 c-113 -80 -206 -148 -208 -152 -1 -4
24 -14 55 -23 32 -8 144 -43 248 -76 l190 -60 42 -133 c23 -74 58 -187 78
-252 l36 -118 119 168 c66 92 124 168 129 168 19 0 535 -1051 527 -1072 -8
-20 -142 -104 -237 -148 l-87 -40 -22 -72 c-33 -108 -69 -178 -144 -278 -38
-49 -75 -106 -83 -125 -20 -46 -19 -202 1 -296 36 -170 85 -251 207 -342 46
-35 85 -67 86 -70 2 -4 -43 -94 -100 -201 l-102 -193 -100 -3 c-161 -4 -263
-57 -352 -184 -26 -36 -211 -283 -411 -549 l-363 -482 -71 64 c-39 36 -89 75
-112 87 -41 21 -44 26 -233 438 -106 229 -195 423 -198 432 -5 13 75 58 407
229 227 117 433 227 457 243 69 47 137 124 178 201 36 68 38 75 38 171 0 90
-3 106 -29 159 -34 69 -122 160 -193 198 -87 48 -576 220 -788 278 -44 12 -83
25 -87 29 -4 3 11 36 34 71 87 138 235 403 320 575 l89 180 -48 7 c-76 10
-569 9 -783 -2 -179 -10 -448 -33 -710 -61 l-105 -11 -110 52 c-712 337 -1405
559 -2110 674 -82 13 -162 29 -178 35 -182 70 -535 106 -793 82 -309 -28 -657
-120 -977 -258 -70 -31 -130 -53 -132 -51 -17 17 -29 149 -29 313 0 168 3 204
27 315 41 190 35 260 -22 260 -65 0 -221 -142 -393 -357 -273 -341 -408 -574
-470 -808 -27 -105 -29 -265 -4 -350 97 -327 468 -571 1121 -736 l130 -33 53
-108 c43 -90 65 -120 127 -182 93 -94 214 -158 349 -185 l89 -18 52 -149 c105
-298 212 -538 318 -712 74 -121 113 -172 197 -258 l70 -70 -15 -110 c-49 -348
-81 -938 -71 -1296 4 -130 3 -218 -3 -218 -13 0 -192 131 -284 208 -43 35 -96
91 -117 122 -50 74 -79 96 -141 109 -73 16 -114 14 -169 -10 -30 -13 -54 -18
-63 -12 -8 4 -72 63 -143 130 l-128 122 27 83 c83 254 265 491 494 641 148 98
183 137 183 209 0 42 -55 93 -122 113 -111 33 -298 10 -420 -50 -88 -45 -209
-129 -281 -197 l-67 -64 -9 36 c-5 19 -19 78 -31 130 -12 52 -44 185 -70 295
-114 468 -140 578 -175 725 -134 559 -124 533 -212 546 -138 21 -325 -66 -369
-172 -30 -72 -22 -103 144 -546 88 -233 162 -439 165 -458 16 -88 -38 -170
-111 -170 -80 0 -107 29 -420 457 -159 219 -301 408 -313 419 -42 37 -72 48
-139 47 -163 -2 -304 -131 -303 -278 0 -82 30 -142 118 -235 39 -41 209 -220
377 -397 290 -304 348 -374 348 -423 0 -39 -28 -77 -70 -94 -34 -14 -88 -16
-355 -16 -334 0 -392 -6 -463 -46 -129 -75 -100 -256 52 -328 47 -22 82 -28
307 -46 l254 -21 40 -46 c75 -88 280 -294 403 -406 224 -203 410 -327 492
-327 23 0 49 12 86 40 29 22 57 40 61 40 5 0 61 -53 125 -117 l118 -118 -50
-98 c-57 -114 -103 -247 -131 -379 -26 -121 -36 -385 -20 -528 75 -660 491
-1377 1181 -2037 114 -109 242 -223 251 -223 3 0 24 35 46 78 88 164 134 366
114 493 -10 58 -9 64 21 123 139 277 402 546 833 850 77 55 203 144 280 199
77 55 147 100 155 101 32 2 4 -198 -52 -367 -134 -402 -412 -782 -947 -1297
l-190 -183 102 -57 c204 -113 408 -257 613 -430 112 -95 574 -555 574 -571 0
-17 -211 -149 -335 -209 -256 -126 -453 -139 -544 -35 -96 110 -48 310 117
487 47 51 47 51 17 44 -16 -4 -78 -27 -137 -50 -209 -85 -370 -221 -448 -380
-65 -132 -75 -185 -75 -386 1 -281 50 -472 149 -578 56 -59 134 -103 241 -134
71 -20 101 -23 265 -22 245 0 376 21 860 135 337 80 393 90 695 123 367 41
365 41 490 11 92 -23 140 -28 291 -32 l181 -6 6 24 c4 13 7 60 7 104 1 44 4
98 8 120 7 37 10 40 42 43 439 35 732 98 995 214 50 22 106 46 125 54 27 10
124 13 440 13 463 1 635 -8 875 -43 408 -59 582 -76 789 -76 446 0 678 115
740 366 39 155 43 400 10 563 -63 309 -276 511 -635 601 -46 12 -92 24 -101
26 -10 3 20 -32 65 -78 63 -63 93 -102 122 -160 74 -150 56 -267 -50 -333 -47
-29 -51 -30 -174 -29 -145 0 -222 19 -405 100 -104 45 -338 173 -364 199 -12
11 -4 29 43 111 57 100 92 149 186 259 178 211 314 485 353 715 36 210 32 350
-25 755 -49 352 -49 569 1 755 11 41 20 78 20 81 0 3 -51 9 -112 12 -163 10
-293 44 -447 120 -82 39 -242 149 -240 164 0 5 34 32 75 62 92 67 252 218 319
300 l50 62 59 -6 c83 -9 200 -48 276 -92 124 -73 293 -270 390 -455 14 -27 28
-48 31 -48 14 0 119 241 171 390 83 244 138 579 138 850 0 228 -42 518 -99
688 -80 240 -267 516 -487 720 l-86 80 140 263 141 264 168 6 c174 7 214 14
297 56 83 42 137 107 205 244 33 68 71 135 84 149 340 372 884 980 900 1008
32 55 31 161 -3 220 -51 91 -141 107 -223 41 -23 -19 -169 -145 -325 -282
-156 -137 -286 -247 -288 -244 -3 3 -1 14 4 24 14 27 69 247 83 334 12 75 12
76 -17 128 -53 98 -168 172 -279 179 -58 4 -64 2 -97 -27 l-36 -31 -6 31 c-14
69 -169 177 -311 214 -91 24 -178 30 -230 15 -72 -20 -89 -49 -114 -192 -24
-132 -30 -151 -52 -156 -10 -2 -107 162 -294 500 -154 276 -282 506 -283 510
-2 5 94 5 214 1 186 -5 216 -4 209 8 -5 8 -68 93 -140 189 -72 96 -139 187
-148 201 -17 26 -16 31 67 273 47 135 84 246 83 246 -1 0 -110 -36 -242 -80
-132 -44 -245 -80 -251 -80 -7 0 -103 68 -213 150 -111 83 -204 150 -206 150
-3 0 -6 -118 -7 -262z m-4189 -5707 c96 -191 193 -360 241 -421 l30 -37 -38
-7 c-20 -3 -95 -9 -167 -12 -216 -11 -432 21 -649 96 -104 36 -306 124 -306
133 0 2 39 19 88 37 163 62 567 281 687 374 11 8 21 16 22 16 1 0 43 -81 92
-179z"/>
<path d="M10000 11340 c-96 -16 -254 -41 -350 -56 -96 -15 -170 -29 -165 -30
13 -4 619 -34 685 -34 l51 0 -3 73 c-3 64 -5 72 -23 74 -11 0 -99 -12 -195
-27z"/>
<path d="M8098 10526 c-186 -95 -341 -176 -345 -179 -9 -10 69 -88 83 -83 13
5 573 403 594 422 8 8 12 14 10 14 -3 -1 -157 -79 -342 -174z"/>
</g>
</svg>
